<svg xmlns="http://www.w3.org/2000/svg" xmlns:xlink="http://www.w3.org/1999/xlink" viewBox="0 0 569.6 100.14"><defs><style>.cls-1{fill:#fff;}.cls-2{opacity:0.18;}.cls-3{fill:#c2c3c6;}.cls-4{fill:#8d8d8e;}.cls-5{fill:#eaebf0;}.cls-6{fill:#6d6d6d;}.cls-7{fill:red;}.cls-8{fill:#001fff;}.cls-9{fill:#fa0;}.cls-10{fill:#0ac900;}.cls-11{fill:#fff800;}.cls-12{fill:url(#Degradado_sin_nombre_15);}.cls-13{fill:#71b62e;}</style><linearGradient id="Degradado_sin_nombre_15" x1="44.13" y1="23.11" x2="57.31" y2="77.08" gradientUnits="userSpaceOnUse"><stop offset="0" stop-color="#0b0b84"/><stop offset="1" stop-color="#08065b"/></linearGradient></defs><g id="Capa_2" data-name="Capa 2"><g id="Capa_1-2" data-name="Capa 1"><path class="cls-1" d="M164.38,18.74c-1.51-.78-3.85-1.16-7-1.16H132.15V86.12h12V60.69h10.73q6.3,0,9.06-2.15a9.09,9.09,0,0,0,3.43-5.64,40.06,40.06,0,0,0,.66-7.46V28.19a21,21,0,0,0-.71-5.91A5.69,5.69,0,0,0,164.38,18.74Zm-8.24,25.92q0,3.54-1.21,5.09a4.77,4.77,0,0,1-4,1.55H144.2V27h7.3c1.84,0,3.08.41,3.7,1.22s.94,2.69.94,5.64Z"/><path class="cls-1" d="M180.46,18.46q-4,0-5.08,1.16t-1.11,4.26c0,2,.37,3.35,1.11,4.09s2.43,1.11,5.08,1.11,4.46-.37,5.2-1.11,1.11-2.1,1.11-4.09-.37-3.48-1.11-4.26S183.19,18.46,180.46,18.46Z"/><rect class="cls-1" x="174.72" y="34.16" width="11.72" height="51.96"/><path class="cls-1" d="M216.17,33.39a12.15,12.15,0,0,0-5.69,1.54,11,11,0,0,0-4.59,4.65l-1.1-5.42h-9.62v52h11.72V50.63a8,8,0,0,1,3-5.25,8.73,8.73,0,0,1,5.31-1.71,31.74,31.74,0,0,1,4.36.27,16.88,16.88,0,0,1,3.15.72l.56-10.17a8.39,8.39,0,0,0-2.55-.83A28.32,28.32,0,0,0,216.17,33.39Z"/><path class="cls-1" d="M233.09,35.49a7.47,7.47,0,0,0-3.87,4,18.77,18.77,0,0,0-1.11,7V71.75a56.79,56.79,0,0,0,.5,8.45A6.57,6.57,0,0,0,231,84.74q1.88,1.38,6.3,1.38h10.94l1.22-9.4H243.7a6,6,0,0,1-2.38-.38,2.32,2.32,0,0,1-1.16-1.61,15.58,15.58,0,0,1-.33-3.76V49a17.51,17.51,0,0,1,.22-3.15,2.44,2.44,0,0,1,1.11-1.71,5.31,5.31,0,0,1,2.76-.55h7.74V86.12h11.72v-52H240.82A18.14,18.14,0,0,0,233.09,35.49Z"/><path class="cls-1" d="M286.65,75.23c-1-1-1.49-2.82-1.49-5.47V43H292l2.65-8.84h-9.5V24.43h-8.52l-2,9.73H269.9V43h3.65V74.84q0,4.88,1.71,7.3a8.08,8.08,0,0,0,4.86,3.21,31.45,31.45,0,0,0,7.36.77h7.74v-9.4H291A5.92,5.92,0,0,1,286.65,75.23Z"/><path class="cls-1" d="M328.27,35.21q-3.87-1.71-10.5-1.71-7.41,0-11.23,1.77A9.86,9.86,0,0,0,301.4,40a15.88,15.88,0,0,0-1.32,6.58V73.63a15.93,15.93,0,0,0,1.32,6.52,9.77,9.77,0,0,0,5,4.75q3.7,1.77,11,1.77,6.85,0,10.73-1.77a11.37,11.37,0,0,0,5.53-4.81,14.2,14.2,0,0,0,1.65-6.91V66.55l-11.72.89v3.64a6.38,6.38,0,0,1-1.43,4.26q-1.44,1.71-4.87,1.71a5.09,5.09,0,0,1-4.2-1.65,6.22,6.22,0,0,1-1.32-4V62.24h23.54V46.32a13.15,13.15,0,0,0-1.6-6.52A11.08,11.08,0,0,0,328.27,35.21ZM311.8,55.94V48.53a6.63,6.63,0,0,1,1.38-4.2,5.33,5.33,0,0,1,4.48-1.77q3.19,0,4.58,1.83a6.66,6.66,0,0,1,1.38,4.14v7.41Z"/><path class="cls-1" d="M373.26,19.79q-4.53-2.76-13-2.77-9.08,0-13.38,2.77t-4.31,10.06V74.62a10.44,10.44,0,0,0,7.85,10.84,32.41,32.41,0,0,0,10.06,1.32,29.28,29.28,0,0,0,9.39-1.32,12.12,12.12,0,0,0,5.92-4,11,11,0,0,0,2-6.8V49.31h-17.9l-.78,10.06h7.08V72.63a4.36,4.36,0,0,1-.67,2.66,3.64,3.64,0,0,1-1.93,1.27,10.94,10.94,0,0,1-3.15.38,12.06,12.06,0,0,1-3.26-.38,3.68,3.68,0,0,1-2.05-1.27,4.44,4.44,0,0,1-.66-2.66V32.28c0-2.14.46-3.61,1.38-4.42a6.7,6.7,0,0,1,4.48-1.22c2,0,3.39.39,4.2,1.16s1.21,2.31,1.21,4.59v8.29l12.05-.55V30Q377.79,22.55,373.26,19.79Z"/><path class="cls-1" d="M390.07,35.49a7.47,7.47,0,0,0-3.87,4,18.77,18.77,0,0,0-1.11,7V71.75a56.79,56.79,0,0,0,.5,8.45A6.61,6.61,0,0,0,388,84.74q1.89,1.38,6.31,1.38h10.94l1.22-9.4h-5.75a6,6,0,0,1-2.38-.38,2.32,2.32,0,0,1-1.16-1.61,15.58,15.58,0,0,1-.33-3.76V49a17.51,17.51,0,0,1,.22-3.15,2.44,2.44,0,0,1,1.11-1.71,5.31,5.31,0,0,1,2.76-.55h7.74V86.12h11.72v-52H397.8A18.14,18.14,0,0,0,390.07,35.49Z"/><path class="cls-1" d="M483.53,35.1c-1.73-1.22-4.33-1.82-7.79-1.82a19.61,19.61,0,0,0-5.69.88,11.45,11.45,0,0,0-5.14,3.26,9.75,9.75,0,0,0-1.39,2,11.38,11.38,0,0,0-.66-1.42,8.79,8.79,0,0,0-3.7-3.37,15.31,15.31,0,0,0-7-1.32,16.25,16.25,0,0,0-7.46,1.6,11.17,11.17,0,0,0-4.81,4.59l-1.1-5.42H429.2V86.12h11.72V47.21a7.17,7.17,0,0,1,2-3.32,5.6,5.6,0,0,1,3.82-1.22,6.36,6.36,0,0,1,4.47,1.38,5.7,5.7,0,0,1,1.5,4.37v37.7h11.71V48.86c0-2.21.56-3.79,1.66-4.75a6.36,6.36,0,0,1,4.31-1.44,5.87,5.87,0,0,1,4.26,1.44c1,1,1.49,2.54,1.49,4.75V86.12H487.9V44.55a15.55,15.55,0,0,0-.88-5A8.89,8.89,0,0,0,483.53,35.1Z"/><path class="cls-1" d="M523.83,35.21Q520,33.5,513.33,33.5q-7.41,0-11.22,1.77A9.79,9.79,0,0,0,497,40a15.72,15.72,0,0,0-1.33,6.58V73.63A15.77,15.77,0,0,0,497,80.15a9.73,9.73,0,0,0,5,4.75q3.69,1.77,11,1.77,6.84,0,10.72-1.77a11.37,11.37,0,0,0,5.53-4.81,14.21,14.21,0,0,0,1.66-6.91V66.55l-11.72.89v3.64a6.39,6.39,0,0,1-1.44,4.26q-1.44,1.71-4.86,1.71a5.09,5.09,0,0,1-4.21-1.65,6.22,6.22,0,0,1-1.32-4V62.24h23.55V46.32a13.16,13.16,0,0,0-1.61-6.52A11.08,11.08,0,0,0,523.83,35.21ZM507.36,55.94V48.53a6.63,6.63,0,0,1,1.38-4.2,5.33,5.33,0,0,1,4.48-1.77q3.19,0,4.58,1.83a6.61,6.61,0,0,1,1.39,4.14v7.41Z"/><path class="cls-1" d="M569.6,51.52v-6.3q0-6.19-3.6-9T554,33.5q-8.4,0-12.27,3t-3.87,9.67v2.1a15.42,15.42,0,0,0,.55,4.26,9.17,9.17,0,0,0,2.21,3.7,21.24,21.24,0,0,0,5,3.65c.51.29,1.18.64,2,1l2.54,1.27c.88.44,1.75.85,2.6,1.22a17,17,0,0,1,2.15,1.1c1.85.89,3,2,3.38,3.26a22.08,22.08,0,0,1,.6,6c0,1.92-.46,3.24-1.38,4a7.79,7.79,0,0,1-7.24.39,3.54,3.54,0,0,1-1.49-1.94,7.91,7.91,0,0,1-.39-2.43V66l-10.5,1.44v7q0,5.86,3.54,9.12t11.83,3.26q9.39,0,12.88-3.31T569.6,73.3V71.64a15.14,15.14,0,0,0-1.66-7.74,13.15,13.15,0,0,0-5.86-4.76c-1.7-.88-3.24-1.65-4.64-2.32s-2.62-1.25-3.65-1.77-1.84-.95-2.43-1.32A6.2,6.2,0,0,1,549,51.19a14,14,0,0,1-.55-4.76,8.71,8.71,0,0,1,.33-2.38,3.21,3.21,0,0,1,1.5-1.87,6.42,6.42,0,0,1,3.37-.72,6.27,6.27,0,0,1,4,1c.85.7,1.27,2,1.27,3.81V53Z"/><circle class="cls-1" cx="50.07" cy="50.07" r="50.07" transform="translate(-20.74 50.07) rotate(-45)"/><g class="cls-2"><path d="M49.41,55H41.64a4.12,4.12,0,0,0-3.21,1.54L23.94,74.62a12,12,0,0,1-9.41,4.52h0a10.05,10.05,0,0,1-10-10V68.2l8.19-31.1a10.52,10.52,0,0,1,5.69-6.83l1.57-.74a6.82,6.82,0,0,0,2.68-2.26l.6-.86a2.07,2.07,0,0,1,1.24-.82l.57-.13h0a2.85,2.85,0,0,1,2.85-2.85h5.25a2.4,2.4,0,0,1,2.4,2.4h0a5.29,5.29,0,0,1,3.89,2.48l.5.81a4.45,4.45,0,0,0,3.78,2.11h5.62"/><path class="cls-3" d="M49.41,31.76s-3.75-.15-5.55-.15-4.65-1.05-5.84-3a4,4,0,0,0-2.7-2.1l-8.55-.15s-2.25-.15-3,1.2-4.8,4-4.8,4a9.68,9.68,0,0,0-5.25,6.31L5.81,67.65a3.48,3.48,0,0,0-.11.85v.39A9.28,9.28,0,0,0,15,78.17h0c3.38,0,7-2.73,9.14-5.37L37.55,56.11c.72-.9,2.26-2.33,3.41-2.33h8.38S49.41,31.61,49.41,31.76Z"/><path class="cls-4" d="M11,57.76a3.78,3.78,0,0,1,2.66,2.84c.28,1.41-.27,2.95.31,4.27a5.2,5.2,0,0,0,2.6,2.23,6.22,6.22,0,0,1,2.73,2.1c.22.39.36.82.55,1.23a2.13,2.13,0,0,0,.86,1,1,1,0,0,0,1.22-.21L36.44,53.88s1.2-2.1,5.55-2.1a4.56,4.56,0,0,0,4.8-3.9l-.72-5.22s3.27,1.17,3.42,3.42,0,7.8,0,7.8H41.32a4.27,4.27,0,0,0-3.26,1.64l-4.92,6.3-9.9,12.3A11.69,11.69,0,0,1,14,78.32,8.35,8.35,0,0,1,6,70.37l1.65,1.35S9.6,69.17,9.6,69,11,60.62,11,60.62Z"/><path d="M38.69,52.08s-3.9,3.14-14.1,16.19a7.29,7.29,0,0,1,2.58-6.69,11.84,11.84,0,0,0,2.52-2.08,12.19,12.19,0,0,0,1.06-2.93A6.67,6.67,0,0,1,33.81,53,7.28,7.28,0,0,1,38.69,52.08Z"/><ellipse cx="27.37" cy="57.47" rx="2.25" ry="1.91" transform="translate(-34.8 71.16) rotate(-76.95)"/><circle cx="29.84" cy="53.73" r="1.05"/><path d="M36.18,29.9a7.33,7.33,0,0,1-2,3.31c-.94,1-2.36,2.37-3.69,2.72C31.91,33.51,34.81,32.33,36.18,29.9Z"/><path d="M36.19,32.39l.94-.79a4,4,0,0,1-1.6,2.4,11.7,11.7,0,0,0-2.17,2,18.47,18.47,0,0,1,1.06-1.9A14.15,14.15,0,0,1,36.19,32.39Z"/><path d="M35.17,28a13.66,13.66,0,0,0-2.51.27c-.86,0-1.72,0-2.58,0A26.86,26.86,0,0,1,25,27.57a6.06,6.06,0,0,0,2.08,0c.91,0,1.81,0,2.72,0A42.78,42.78,0,0,1,35.17,28Z"/><path d="M37.07,29.23A4.43,4.43,0,0,0,40,31.51a8.77,8.77,0,0,0,2,.15h4.58a30.53,30.53,0,0,1-4.65-.7,3.56,3.56,0,0,1-1.66-.73c.42.39.05.46-.34.45a3.62,3.62,0,0,1-1.08-.2A3.55,3.55,0,0,1,37.07,29.23Z"/><path d="M49.45,32.77c-2.09.19-4.18.3-6.28.35a19.81,19.81,0,0,1,3,.23q.75.1,1.5.24l.77.17a7.25,7.25,0,0,0,.93.17C49.49,33.93,49.43,33.08,49.45,32.77Z"/><path class="cls-5" d="M5.85,70.22s0,3.3,3.75,3.15a6.47,6.47,0,0,1-1.2-5.25C9.15,65.27,11,57.62,11,57.62l4.8-19.79a7.76,7.76,0,0,1,3.6-4.2c2.7-1.35,5.09-5.4,5.09-5.4s-1.05-.15-3.59,2.1c0,0-3.6,2-4.65,3.15a9.7,9.7,0,0,0-2.4,4.05c-.6,1.95-4.2,16.35-4.2,16.35L5.85,67.67A7.16,7.16,0,0,0,5.85,70.22Z"/><path d="M22,71.64l-2.14,2.09a7.27,7.27,0,0,1-8.58,1.16,6.26,6.26,0,0,1-3-7.06L10.87,57.7A38,38,0,0,0,12,67.47c.23,1,.65,2.09,1.63,2.3.38.08.79,0,1.18.08a3.48,3.48,0,0,1,1.4,1A5.17,5.17,0,0,0,22,71.64Z"/><path d="M13.81,54.48a9.51,9.51,0,0,0,.71-2.37c.16-1.25-.15-2.58.36-3.72a13,13,0,0,0-1.67,3.9A25,25,0,0,0,12.77,55c-.11.92-.28,1.86-.34,2.79.34-.28.5-1.11.67-1.52Z"/><path d="M16.3,37.05c-1.22,2.14-1,4.76-1.34,7.2a29.8,29.8,0,0,1-1.63,5.69c-.65,1.8-1,3.75-1.66,5.54l.42-3.12.64-4.79A30.12,30.12,0,0,1,13.35,44a45.27,45.27,0,0,1,2.8-6.82"/><path d="M33.59,37.68H29.54v-5.1H22.79v5.1h-4a1,1,0,0,0-1.05,1v4.65a1,1,0,0,0,1.05,1h4v5.1h6.75v-5.1h4.05a1,1,0,0,0,1-1V38.73A1,1,0,0,0,33.59,37.68ZM24,33.78h4.35V38l-.85.85-1.37,1.38-1.38-1.38L24,38.14V33.78Zm-5.09,5.1H23l1,1,1.23,1.23L24,42.38l-.84.85H18.9Zm9.44,9.45H24V44.08l.85-.85L26.07,42l1.23,1.23,1,1v4.06Zm5.1-5.1H29.09l-.75-.74L27,41.11l1.38-1.38.85-.85h4.25Z"/><path d="M24.59,44.88v2.55h2.55c-.3-.15-.62-.46-.93-.61a3.66,3.66,0,0,1-.8-.49,2.78,2.78,0,0,1-.76-1.71C24.65,44.67,24.59,44.84,24.59,44.88Z"/><path d="M29.68,42.48h2.86v-3c-.17.36-.52.73-.68,1.1a4.21,4.21,0,0,1-.55.94,3.17,3.17,0,0,1-1.92.9C29.44,42.42,29.63,42.48,29.68,42.48Z"/><path d="M20,39.62v2.86h3c-.36-.17-.73-.52-1.09-.69a4,4,0,0,1-.94-.54,3.06,3.06,0,0,1-.9-1.92C20,39.38,19.94,39.57,20,39.62Z"/><path d="M27.46,34.53H24.59v3c.17-.36.52-.73.69-1.1a4.17,4.17,0,0,1,.54-.94,3.2,3.2,0,0,1,1.92-.9S27.51,34.53,27.46,34.53Z"/><circle class="cls-6" cx="42.18" cy="46.42" r="4.99"/><path d="M42.18,42a4.47,4.47,0,1,1-4.46,4.47A4.47,4.47,0,0,1,42.18,42m0-1.05a5.52,5.52,0,1,0,5.51,5.52,5.51,5.51,0,0,0-5.51-5.52Z"/><path d="M49.49,51.48v-5.4H48.44s.6,2.85-2.4,5.4Z"/><path class="cls-5" d="M36.89,34.23v7.05s4.2-2.7,6.45-1.5c0,0-1.28-2.47-3.68-2.47A5.5,5.5,0,0,0,36.89,34.23Z"/><path class="cls-5" d="M40.08,36.63a.77.77,0,0,0,.69.36.62.62,0,0,0,.48-.61C41.25,35.1,39,35.21,40.08,36.63Z"/><path class="cls-5" d="M21.6,50.13V45.48H17.85c-.18.39.34.93.71,1.14s.82.37,1,.75a4.24,4.24,0,0,1,.26,1A3.51,3.51,0,0,0,21.6,50.13Z"/><path class="cls-5" d="M44.27,43.92a2.79,2.79,0,0,1,1,2.44,3.54,3.54,0,0,0-4.47-2.51C42,43.28,43.1,43,44.27,43.92Z"/><path d="M38.78,47.1a2.87,2.87,0,0,0,1.89,2.16,4.3,4.3,0,0,0,4.06-1.33,3.11,3.11,0,0,1-4.13-4.39,12.1,12.1,0,0,1-1.29,1.38A2.78,2.78,0,0,0,38.78,47.1Z"/><path d="M49.34,55h7.77a4.12,4.12,0,0,1,3.21,1.54L74.81,74.62a12,12,0,0,0,9.41,4.52h0a10.05,10.05,0,0,0,10-10V68.2L86.13,37.1a10.5,10.5,0,0,0-5.69-6.83l-1.57-.74a6.82,6.82,0,0,1-2.68-2.26l-.6-.86a2.07,2.07,0,0,0-1.24-.82l-.57-.13h0a2.85,2.85,0,0,0-2.85-2.85H65.68a2.4,2.4,0,0,0-2.4,2.4h0a5.29,5.29,0,0,0-3.89,2.48l-.5.81a4.45,4.45,0,0,1-3.78,2.11H49.49"/><path class="cls-3" d="M49.34,31.76s3.75-.15,5.55-.15,4.65-1.05,5.85-3a4,4,0,0,1,2.69-2.1L72,26.36s2.25-.15,3,1.2,4.8,4,4.8,4A9.68,9.68,0,0,1,85,37.86l7.91,29.79a3.48,3.48,0,0,1,.11.85v.39a9.28,9.28,0,0,1-9.28,9.28h0c-3.38,0-7-2.73-9.14-5.37L61.2,56.11c-.72-.9-2.26-2.33-3.41-2.33H49.41S49.34,31.61,49.34,31.76Z"/><path class="cls-4" d="M87.77,57.76a3.78,3.78,0,0,0-2.66,2.84c-.28,1.41.27,2.95-.31,4.27a5.2,5.2,0,0,1-2.6,2.23,6.22,6.22,0,0,0-2.73,2.1c-.22.39-.36.82-.55,1.23a2.13,2.13,0,0,1-.86,1,1,1,0,0,1-1.22-.21L62.31,53.88s-1.2-2.1-5.55-2.1a4.56,4.56,0,0,1-4.8-3.9l.72-5.22s-3.27,1.17-3.42,3.42,0,7.8,0,7.8h8.17a4.27,4.27,0,0,1,3.26,1.64l4.92,6.3,9.9,12.3a11.69,11.69,0,0,0,9.29,4.2,8.35,8.35,0,0,0,8-7.95L91.1,71.72s-1.95-2.55-1.95-2.7-1.35-8.4-1.35-8.4Z"/><path d="M60.06,52.08s3.9,3.14,14.1,16.19a7.29,7.29,0,0,0-2.58-6.69,11.84,11.84,0,0,1-2.52-2.08A12.19,12.19,0,0,1,68,56.57,6.67,6.67,0,0,0,64.94,53,7.28,7.28,0,0,0,60.06,52.08Z"/><ellipse cx="71.38" cy="57.47" rx="1.91" ry="2.25" transform="translate(-11.14 17.6) rotate(-13.05)"/><circle cx="68.91" cy="53.73" r="1.05"/><path d="M62.57,29.9a7.33,7.33,0,0,0,2,3.31c.94,1,2.36,2.37,3.69,2.72C66.84,33.51,63.94,32.33,62.57,29.9Z"/><path d="M62.56,32.39l-.94-.79a4,4,0,0,0,1.6,2.4,11.7,11.7,0,0,1,2.17,2,18.47,18.47,0,0,0-1.06-1.9A13.49,13.49,0,0,0,62.56,32.39Z"/><path d="M63.73,28a13.66,13.66,0,0,1,2.51.27c.86,0,1.72,0,2.58,0A26.86,26.86,0,0,0,74,27.57a6.06,6.06,0,0,1-2.08,0c-.91,0-1.81,0-2.72,0A42.78,42.78,0,0,0,63.73,28Z"/><path d="M61.68,29.23a4.43,4.43,0,0,1-2.91,2.28,8.77,8.77,0,0,1-2,.15H52.21a30.53,30.53,0,0,0,4.65-.7,3.56,3.56,0,0,0,1.66-.73c-.42.39-.05.46.34.45a3.62,3.62,0,0,0,1.08-.2A3.55,3.55,0,0,0,61.68,29.23Z"/><path d="M49.3,32.77c2.09.19,4.18.3,6.28.35a19.81,19.81,0,0,0-3,.23q-.75.1-1.5.24l-.77.17a7.25,7.25,0,0,1-.93.17C49.26,33.93,49.32,33.08,49.3,32.77Z"/><path class="cls-5" d="M92.9,70.22s0,3.3-3.75,3.15a6.47,6.47,0,0,0,1.2-5.25c-.75-2.85-2.55-10.5-2.55-10.5L83,37.83a7.76,7.76,0,0,0-3.6-4.2c-2.7-1.35-5.09-5.4-5.09-5.4s1-.15,3.59,2.1c0,0,3.6,2,4.65,3.15A9.7,9.7,0,0,1,85,37.53c.6,1.95,4.2,16.35,4.2,16.35L92.9,67.67A7.16,7.16,0,0,1,92.9,70.22Z"/><path d="M76.78,71.64l2.14,2.09a7.27,7.27,0,0,0,8.58,1.16,6.26,6.26,0,0,0,3-7.06L87.88,57.7a38,38,0,0,1-1.17,9.77c-.23,1-.65,2.09-1.63,2.3-.38.08-.79,0-1.18.08a3.48,3.48,0,0,0-1.4,1A5.17,5.17,0,0,1,76.78,71.64Z"/><path d="M84.94,54.48a9.51,9.51,0,0,1-.71-2.37c-.16-1.25.15-2.58-.36-3.72a13,13,0,0,1,1.67,3.9A25,25,0,0,1,86,55c.11.92.28,1.86.34,2.79-.34-.28-.5-1.11-.67-1.52Z"/><path d="M82.45,37.05c1.22,2.14,1,4.76,1.35,7.2a29.06,29.06,0,0,0,1.62,5.69c.65,1.8,1,3.75,1.66,5.54l-.42-3.12L86,47.57A30.12,30.12,0,0,0,85.4,44a44.25,44.25,0,0,0-2.8-6.82"/><circle class="cls-6" cx="56.57" cy="46.42" r="4.99"/><path d="M56.57,42a4.47,4.47,0,1,1-4.46,4.47A4.48,4.48,0,0,1,56.57,42m0-1.05a5.52,5.52,0,1,0,5.51,5.52,5.52,5.52,0,0,0-5.51-5.52Z"/><path d="M49.11,51.48v-5.4h1.1s-.63,2.85,2.5,5.4Z"/><path class="cls-5" d="M61.86,34.23v7.05s-4.2-2.7-6.45-1.5c0,0,1.28-2.47,3.68-2.47A5.5,5.5,0,0,1,61.86,34.23Z"/><path class="cls-5" d="M58.67,36.63A.77.77,0,0,1,58,37a.62.62,0,0,1-.48-.61C57.5,35.1,59.71,35.21,58.67,36.63Z"/><path class="cls-5" d="M77.15,50.13V45.48H80.9c.18.39-.34.93-.71,1.14s-.82.37-1,.75a4.24,4.24,0,0,0-.26,1A3.51,3.51,0,0,1,77.15,50.13Z"/><path class="cls-5" d="M54.48,43.92a2.79,2.79,0,0,0-1,2.44A3.54,3.54,0,0,1,58,43.85C56.77,43.28,55.65,43,54.48,43.92Z"/><path d="M60,47.1a2.87,2.87,0,0,1-1.89,2.16A4.3,4.3,0,0,1,54,47.93a3.11,3.11,0,0,0,4.13-4.39,12.1,12.1,0,0,0,1.29,1.38A2.78,2.78,0,0,1,60,47.1Z"/><path class="cls-7" d="M72.86,38.71A2.75,2.75,0,1,1,75.6,36,2.74,2.74,0,0,1,72.86,38.71Z"/><path d="M72.86,33.82A2.15,2.15,0,1,1,70.72,36a2.15,2.15,0,0,1,2.14-2.15m0-1.2A3.35,3.35,0,1,0,76.2,36a3.34,3.34,0,0,0-3.34-3.35Z"/><path class="cls-8" d="M72.86,49.63a2.74,2.74,0,1,1,2.74-2.74A2.74,2.74,0,0,1,72.86,49.63Z"/><path d="M72.86,44.75a2.14,2.14,0,1,1-2.14,2.14,2.14,2.14,0,0,1,2.14-2.14m0-1.2a3.34,3.34,0,1,0,3.34,3.34,3.34,3.34,0,0,0-3.34-3.34Z"/><circle class="cls-9" cx="78.32" cy="41.43" r="2.74"/><path d="M78.32,39.29a2.14,2.14,0,1,1-2.14,2.14,2.14,2.14,0,0,1,2.14-2.14m0-1.2a3.34,3.34,0,1,0,3.34,3.34,3.33,3.33,0,0,0-3.34-3.34Z"/><circle class="cls-10" cx="67.33" cy="41.43" r="2.74"/><path d="M67.33,39.29a2.14,2.14,0,1,1-2.14,2.14,2.14,2.14,0,0,1,2.14-2.14m0-1.2a3.34,3.34,0,1,0,3.34,3.34,3.34,3.34,0,0,0-3.34-3.34Z"/><rect class="cls-11" x="46.24" y="37.33" width="6.46" height="3.04" rx="1.23"/><path d="M51.47,37.93a.64.64,0,0,1,.64.63v.58a.64.64,0,0,1-.64.63h-4a.63.63,0,0,1-.63-.63v-.58a.63.63,0,0,1,.63-.63h4m0-1.2h-4a1.83,1.83,0,0,0-1.83,1.83v.58A1.83,1.83,0,0,0,47.47,41h4a1.83,1.83,0,0,0,1.83-1.83v-.58a1.83,1.83,0,0,0-1.83-1.83Z"/><path class="cls-3" d="M46.11,31V28.63a1,1,0,0,1,1-1h4.56a1,1,0,0,1,1,1V31Z"/><path d="M51.68,28.22a.41.41,0,0,1,.41.41v1.75H46.71V28.63a.41.41,0,0,1,.41-.41h4.56m0-1.2H47.12a1.61,1.61,0,0,0-1.61,1.61v2.95h7.78V28.63A1.61,1.61,0,0,0,51.68,27Z"/><polygon points="51.52 28.69 50.01 28.69 50.01 30.85 51.52 30.85 51.52 28.69 51.52 28.69"/><path d="M49.14,28.06A4.38,4.38,0,0,1,49,24.93a16.05,16.05,0,0,1,.56-1.61c.14-.35.28-.69.39-1a3.82,3.82,0,0,0,.18-2.36,1.63,1.63,0,0,0-1.41-1.21,3,3,0,0,0-1,.28,4,4,0,0,1-1.39.38,2.76,2.76,0,0,1-2.43-1.51,4.12,4.12,0,0,1-.32-2.69,9.26,9.26,0,0,1,.57-1.78.6.6,0,0,1,.8-.32h0a.59.59,0,0,1,.31.78,8.13,8.13,0,0,0-.5,1.54,3,3,0,0,0,.2,1.91,1.55,1.55,0,0,0,1.33.87,3.08,3.08,0,0,0,1-.29,4,4,0,0,1,1.44-.37,2.81,2.81,0,0,1,2.57,2.06A5.08,5.08,0,0,1,51,22.67c-.13.37-.27.74-.41,1.09a13.09,13.09,0,0,0-.52,1.48,3.31,3.31,0,0,0,.1,2.27Z"/></g><path class="cls-12" d="M94,65l-30.15-7.5-15,8,8.54,2.12,2.59-1.37,6.66,1.65a19,19,0,0,1,4.77,1.58c.57.4.38.85-.55,1.35a5.58,5.58,0,0,1-2.91.6,30.6,30.6,0,0,1-5.4-1l-27-6.7c-2.87-.72-4.51-1.23-4.92-1.56s-.21-.69.58-1.11a5.36,5.36,0,0,1,2.95-.62,47.1,47.1,0,0,1,6.4,1.31l5.1,1.27,12.83-6.8-2.43-.6c-2.67-.67-5.1-1.17-7.29-1.52V25.61c1.57,0,2.6.24,3.1.72s.74,1.51.74,3.1v3.81a28.7,28.7,0,0,1-.22,3.87s-2.4,8.48,6,7.21c1.77-.27,2.76-1.77,3.37-3.13a16.69,16.69,0,0,0,.92-6.48V30.66a32.26,32.26,0,0,0-.47-6.44,7.72,7.72,0,0,0-1.81-3.54,8.48,8.48,0,0,0-4-2.24,28.46,28.46,0,0,0-7.59-.77H36.69V53.91q-1.63.24-3.39.6a44.91,44.91,0,0,0-12,4.3q-5.73,3-6.31,5.71t2.31,4a73.5,73.5,0,0,0,10.93,3.32l8.45,2.1v7.34l11.77-4.44c2.22.5,4.06.88,5.52,1.11a39.41,39.41,0,0,0,7.37.41,45.18,45.18,0,0,0,8.7-1.17A32,32,0,0,0,77.9,74.4a7.9,7.9,0,0,0,3.41-2.82,2.25,2.25,0,0,0-.6-2.73l5.21.38Z"/><path class="cls-13" d="M50.07,100.14A50.08,50.08,0,0,1,14.66,14.66,50.07,50.07,0,1,1,85.47,85.47,49.72,49.72,0,0,1,50.07,100.14Zm0-98.43A48.36,48.36,0,1,0,98.43,50.07,48.41,48.41,0,0,0,50.07,1.71Z"/></g></g></svg>