<svg xmlns="http://www.w3.org/2000/svg" viewBox="0 0 585.44 103.6"><defs><style>.cls-1{fill:#fff;}</style></defs><g id="Capa_2" data-name="Capa 2"><g id="Capa_1-2" data-name="Capa 1"><path class="cls-1" d="M180.22,18.64c-1.51-.78-3.85-1.16-7-1.16H148V86h12.05V60.59h10.72q6.3,0,9.07-2.16a9,9,0,0,0,3.42-5.63,40.14,40.14,0,0,0,.67-7.47V28.09a20.76,20.76,0,0,0-.72-5.92A5.69,5.69,0,0,0,180.22,18.64ZM172,44.56c0,2.36-.41,4-1.22,5.09a4.76,4.76,0,0,1-4,1.54h-6.74V26.87h7.29c1.84,0,3.08.41,3.71,1.22s.94,2.69.94,5.64Z"/><rect class="cls-1" x="190.56" y="34.06" width="11.72" height="51.96"/><path class="cls-1" d="M196.31,18.36c-2.66,0-4.35.39-5.09,1.16s-1.1,2.19-1.1,4.26.36,3.35,1.1,4.09,2.43,1.1,5.09,1.1,4.45-.37,5.19-1.1,1.11-2.1,1.11-4.09-.37-3.49-1.11-4.26S199,18.36,196.31,18.36Z"/><path class="cls-1" d="M232,33.28a12.17,12.17,0,0,0-5.69,1.55,11,11,0,0,0-4.59,4.64l-1.1-5.41H211V86h11.72V50.53a8.05,8.05,0,0,1,3-5.25A8.73,8.73,0,0,1,231,43.57a31.89,31.89,0,0,1,4.37.27,17.07,17.07,0,0,1,3.15.72l.55-10.17a8.32,8.32,0,0,0-2.54-.83A28.32,28.32,0,0,0,232,33.28Z"/><path class="cls-1" d="M248.93,35.39a7.44,7.44,0,0,0-3.87,4,18.77,18.77,0,0,0-1.11,7V71.65a56.89,56.89,0,0,0,.5,8.45,6.62,6.62,0,0,0,2.38,4.54q1.88,1.38,6.3,1.38h10.94l1.22-9.4h-5.75a5.79,5.79,0,0,1-2.38-.39,2.28,2.28,0,0,1-1.16-1.6,15.58,15.58,0,0,1-.33-3.76v-22a17.51,17.51,0,0,1,.22-3.15A2.47,2.47,0,0,1,257,44a5.34,5.34,0,0,1,2.76-.55h7.74V86h11.72v-52H256.67A18.16,18.16,0,0,0,248.93,35.39Z"/><path class="cls-1" d="M302.49,75.13Q301,73.63,301,69.66V42.9h6.85l2.66-8.84H301V24.33h-8.52l-2,9.73h-4.76V42.9h3.65V74.74c0,3.24.57,5.68,1.71,7.3a8,8,0,0,0,4.87,3.2,30.8,30.8,0,0,0,7.35.78h7.74v-9.4h-4.2A5.93,5.93,0,0,1,302.49,75.13Z"/><path class="cls-1" d="M344.11,35.11a26.45,26.45,0,0,0-10.5-1.72c-4.94,0-8.68.6-11.22,1.77a9.84,9.84,0,0,0-5.14,4.7,15.72,15.72,0,0,0-1.33,6.58V73.52a15.82,15.82,0,0,0,1.33,6.53,9.77,9.77,0,0,0,5,4.75q3.71,1.77,11,1.77,6.86,0,10.72-1.77A11.42,11.42,0,0,0,349.53,80a14.24,14.24,0,0,0,1.66-6.91V66.45l-11.72.88V71A6.39,6.39,0,0,1,338,75.24q-1.44,1.71-4.86,1.71a5,5,0,0,1-4.2-1.66,6.13,6.13,0,0,1-1.33-4V62.14h23.55V46.22a13.13,13.13,0,0,0-1.61-6.52A11.08,11.08,0,0,0,344.11,35.11ZM327.64,55.84V48.43a6.63,6.63,0,0,1,1.38-4.2,5.33,5.33,0,0,1,4.48-1.77q3.19,0,4.59,1.82a6.71,6.71,0,0,1,1.38,4.15v7.41Z"/><path class="cls-1" d="M389.1,19.69q-4.53-2.78-13-2.77-9.06,0-13.38,2.77t-4.31,10.06V74.52a10.45,10.45,0,0,0,7.85,10.83,32.12,32.12,0,0,0,10.06,1.33,29,29,0,0,0,9.4-1.33,12,12,0,0,0,5.91-4,11,11,0,0,0,2.05-6.8V49.2H375.73L375,59.26H382V72.53a4.4,4.4,0,0,1-.66,2.65,3.65,3.65,0,0,1-1.94,1.27,10.91,10.91,0,0,1-3.15.39,12.08,12.08,0,0,1-3.26-.39,3.7,3.7,0,0,1-2-1.27,4.4,4.4,0,0,1-.66-2.65V32.18c0-2.14.46-3.61,1.38-4.42a6.72,6.72,0,0,1,4.48-1.22c2,0,3.39.39,4.2,1.16s1.22,2.31,1.22,4.59v8.29L393.64,40V29.86Q393.64,22.45,389.1,19.69Z"/><path class="cls-1" d="M405.91,35.39a7.44,7.44,0,0,0-3.87,4,18.77,18.77,0,0,0-1.11,7V71.65a56.89,56.89,0,0,0,.5,8.45,6.62,6.62,0,0,0,2.38,4.54q1.88,1.38,6.3,1.38h10.94l1.22-9.4h-5.75a5.79,5.79,0,0,1-2.38-.39,2.28,2.28,0,0,1-1.16-1.6,15.58,15.58,0,0,1-.33-3.76v-22a17.51,17.51,0,0,1,.22-3.15A2.47,2.47,0,0,1,414,44a5.34,5.34,0,0,1,2.76-.55h7.74V86H436.2v-52H413.65A18.16,18.16,0,0,0,405.91,35.39Z"/><path class="cls-1" d="M499.38,35q-2.6-1.83-7.8-1.83a19.63,19.63,0,0,0-5.69.89,11.5,11.5,0,0,0-5.14,3.26,9.26,9.26,0,0,0-1.38,2,10.06,10.06,0,0,0-.67-1.41A8.73,8.73,0,0,0,475,34.5a15.25,15.25,0,0,0-7-1.33,16.27,16.27,0,0,0-7.47,1.61,11.07,11.07,0,0,0-4.8,4.58L454.66,34H445V86h11.72V47.1a7.07,7.07,0,0,1,2.05-3.31,5.57,5.57,0,0,1,3.81-1.22A6.41,6.41,0,0,1,467.1,44a5.73,5.73,0,0,1,1.49,4.37V86h11.72V48.76q0-3.32,1.66-4.75a6.32,6.32,0,0,1,4.31-1.44A5.86,5.86,0,0,1,490.53,44q1.5,1.44,1.5,4.75V86h11.71V44.45a15.55,15.55,0,0,0-.88-5A8.88,8.88,0,0,0,499.38,35Z"/><path class="cls-1" d="M539.67,35.11a26.45,26.45,0,0,0-10.5-1.72c-4.94,0-8.68.6-11.22,1.77a9.84,9.84,0,0,0-5.14,4.7,15.72,15.72,0,0,0-1.33,6.58V73.52a15.82,15.82,0,0,0,1.33,6.53,9.77,9.77,0,0,0,5,4.75q3.7,1.77,11,1.77,6.85,0,10.72-1.77A11.42,11.42,0,0,0,545.09,80a14.13,14.13,0,0,0,1.66-6.91V66.45L535,67.33V71a6.39,6.39,0,0,1-1.44,4.26q-1.44,1.71-4.86,1.71a5,5,0,0,1-4.2-1.66,6.13,6.13,0,0,1-1.33-4V62.14h23.55V46.22a13.13,13.13,0,0,0-1.61-6.52A11,11,0,0,0,539.67,35.11ZM523.2,55.84V48.43a6.63,6.63,0,0,1,1.38-4.2,5.34,5.34,0,0,1,4.48-1.77q3.21,0,4.59,1.82A6.71,6.71,0,0,1,535,48.43v7.41Z"/><path class="cls-1" d="M585.44,51.41v-6.3q0-6.18-3.59-9t-12-2.77q-8.4,0-12.27,3t-3.87,9.68v2.1a15.81,15.81,0,0,0,.55,4.26,9.09,9.09,0,0,0,2.22,3.7,21.22,21.22,0,0,0,5,3.65c.52.29,1.18.64,2,1L566,62.14c.89.44,1.75.85,2.6,1.21a16.48,16.48,0,0,1,2.16,1.11,5.85,5.85,0,0,1,3.37,3.26,22,22,0,0,1,.61,6c0,1.91-.46,3.24-1.39,4a7.74,7.74,0,0,1-7.24.38,3.56,3.56,0,0,1-1.49-1.93,7.91,7.91,0,0,1-.39-2.43V65.9l-10.5,1.43v7q0,5.86,3.54,9.12t11.83,3.26q9.39,0,12.88-3.32t3.48-10.17V71.53a15,15,0,0,0-1.66-7.73A13.1,13.1,0,0,0,577.92,59c-1.69-.88-3.24-1.66-4.64-2.32s-2.62-1.25-3.65-1.77-1.84-1-2.43-1.32a6.12,6.12,0,0,1-2.32-2.55,13.88,13.88,0,0,1-.55-4.75,8.71,8.71,0,0,1,.33-2.38,3.21,3.21,0,0,1,1.49-1.88,8.27,8.27,0,0,1,7.41.33c.84.71,1.27,2,1.27,3.82v6.63Z"/><path class="cls-1" d="M128.86,77.05,79.73,64.84l-24.48,13,13.9,3.46L73.38,79l10.85,2.7c4.26,1.06,6.85,1.91,7.77,2.57s.63,1.38-.9,2.19a9,9,0,0,1-4.73,1,52,52,0,0,1-8.8-1.65L33.64,74.9q-7-1.74-8-2.53c-.67-.52-.36-1.13.94-1.81a8.75,8.75,0,0,1,4.8-1,78.1,78.1,0,0,1,10.44,2.13l8.31,2.07L71,62.67l-4-1q-6.54-1.63-11.89-2.47V13c2.55,0,4.24.39,5,1.17s1.21,2.46,1.21,5.05v6.21a49.06,49.06,0,0,1-.36,6.31S57.16,45.5,70.91,43.43c2.88-.44,4.49-2.88,5.49-5.1s1.5-5.73,1.5-10.56V21.18a52.07,52.07,0,0,0-.77-10.5,12.56,12.56,0,0,0-2.95-5.77,13.78,13.78,0,0,0-6.5-3.65A46.56,46.56,0,0,0,55.32,0H35.5V59.06c-1.78.26-3.62.58-5.53,1a73,73,0,0,0-19.54,7Q1.1,72,.16,76.34t3.75,6.48q4.7,2.13,17.81,5.39L35.5,91.64v12l19.18-7.24c3.62.83,6.61,1.44,9,1.82a63.39,63.39,0,0,0,12,.67,73.65,73.65,0,0,0,14.19-1.91,52.13,52.13,0,0,0,12.78-4.5q4.42-2.34,5.55-4.6c.76-1.5.44-3-1-4.43l8.49.6Z"/></g></g></svg>